# xmcd
#
# Track frame offsets:
#	150
#	16673
#	40165
#	60557
#	72842
#	86617
#	110161
#	121237
#	137910
#	147875
#	160506
#	173095
#	189251
#	201129
#	217012
#	228694
#	242462
#	258698
#
# Disc length: 3616 seconds
#
# Revision: 1
# Processed by: cddbd v1.5.2PL0 Copyright (c) Steve Scherf et al.
# Submitted via: audiograbber 1.83.01
#
DISCID=fb0e1e12
DTITLE=Long Gone Smiles Band, The - More For The Money
DYEAR=2016
DGENRE=Bluegrass
TTITLE0=Friday
TTITLE1=Coal Black Highway
TTITLE2=Listenin' To Hank Williams
TTITLE3=The Depot Rounder
TTITLE4=Somethin' Set Me Free
TTITLE5=The Midnight Train Is Lonesome
TTITLE6=If Some Words Had Not Been Spoken
TTITLE7=Way Out On The Prairie
TTITLE8=Who Started The Heartache
TTITLE9=His Laughter Cured My Long Gone Lonesome Blues
TTITLE10=Knucklehead Boogie
TTITLE11=Ramblin's Been A Long Time On My Mind
TTITLE12=Mickeybilly Mountain Song
TTITLE13=Secret Love
TTITLE14=Champagne
TTITLE15=More For The Money
TTITLE16=I Stood Still
TTITLE17=Seneca Square Dance
EXTD=
EXTT0=
EXTT1=
EXTT2=
EXTT3=
EXTT4=
EXTT5=
EXTT6=
EXTT7=
EXTT8=
EXTT9=
EXTT10=
EXTT11=
EXTT12=
EXTT13=
EXTT14=
EXTT15=
EXTT16=
EXTT17=
PLAYORDER=
